<?xml version="1.0" encoding="iso-8859-1"?>
<svg height="800px" width="800px" version="1.1" id="Layer_1" xmlns="http://www.w3.org/2000/svg" xmlns:xlink="http://www.w3.org/1999/xlink" 
	 viewBox="0 0 392.663 392.663" xml:space="preserve">
<path style="fill:#FFC10D;" d="M55.143,54.562v283.539c0,18.036,14.675,32.711,32.711,32.711h8.598V21.851h-8.598
	C69.818,21.851,55.143,36.461,55.143,54.562z"/>
<path style="fill:#FFFFFF;" d="M337.584,359.822V32.711c0-6.012-4.848-10.925-10.925-10.925h-208.42v349.026h208.42
	C332.671,370.747,337.584,365.899,337.584,359.822z"/>
<path style="fill:#56ACE0;" d="M140.412,43.572v169.18h54.174c6.012,0,10.925,4.848,10.925,10.925
	c0,6.012-4.848,10.925-10.925,10.925h-54.174v25.471h25.083c6.012,0,10.925,4.848,10.925,10.925c0,6.012-4.848,10.925-10.925,10.925
	h-25.083v66.909h175.709V43.572H140.412z"/>
<path style="fill:#FFC10D;" d="M226.004,81.842c1.875-1.293,4.073-2.004,6.271-2.004s4.396,0.711,6.271,2.004l18.877,13.188V21.786
	h-50.166V95.03L226.004,81.842z"/>
<path style="fill:#194F82;" d="M326.594,0H87.855C57.794,0,33.293,24.501,33.293,54.562v283.539
	c0,30.061,24.501,54.562,54.562,54.562h238.804c18.036,0,32.711-14.675,32.711-32.711V32.711C359.37,14.675,344.695,0,326.594,0z
	 M207.257,21.786h50.166v73.309l-18.747-13.188c-1.293-2.521-10.02-2.715-12.606,0l-18.747,13.188L207.257,21.786L207.257,21.786z
	 M96.388,370.747H87.79c-18.036,0-32.711-14.675-32.711-32.711V54.562c0-18.036,14.675-32.711,32.711-32.711h8.598
	C96.388,21.851,96.388,370.747,96.388,370.747z M337.519,359.822c0,6.012-4.848,10.925-10.925,10.925H118.238V21.786h67.232v94.319
	c0.323,9.568,10.343,13.576,17.131,8.857l29.673-20.945l29.673,20.945c6.4,4.848,16.937,0.388,17.131-8.857V21.786h47.451
	c6.012,0,10.925,4.848,10.925,10.925v327.111H337.519z"/>
</svg>